
<svg width="1000" height="1000" xmlns="http://www.w3.org/2000/svg">
  <g>
    <circle cx="100" cy="100" r="2" fill="#5CFF5C" opacity="0.5"/>
    <circle cx="300" cy="200" r="2" fill="#5CFF5C" opacity="0.5"/>
    <circle cx="500" cy="300" r="2" fill="#5CFF5C" opacity="0.5"/>
    <circle cx="700" cy="100" r="2" fill="#5CFF5C" opacity="0.5"/>
    <circle cx="900" cy="400" r="2" fill="#5CFF5C" opacity="0.5"/>
    <circle cx="150" cy="500" r="2" fill="#5CFF5C" opacity="0.5"/>
    <circle cx="450" cy="600" r="2" fill="#5CFF5C" opacity="0.5"/>
    <circle cx="650" cy="700" r="2" fill="#5CFF5C" opacity="0.5"/>
    <circle cx="850" cy="800" r="2" fill="#5CFF5C" opacity="0.5"/>
    <circle cx="250" cy="900" r="2" fill="#5CFF5C" opacity="0.5"/>
    
    <line x1="100" y1="100" x2="300" y2="200" stroke="#5CFF5C" stroke-width="0.5" opacity="0.3"/>
    <line x1="300" y1="200" x2="500" y2="300" stroke="#5CFF5C" stroke-width="0.5" opacity="0.3"/>
    <line x1="500" y1="300" x2="700" y2="100" stroke="#5CFF5C" stroke-width="0.5" opacity="0.3"/>
    <line x1="700" y1="100" x2="900" y2="400" stroke="#5CFF5C" stroke-width="0.5" opacity="0.3"/>
    <line x1="150" y1="500" x2="450" y2="600" stroke="#5CFF5C" stroke-width="0.5" opacity="0.3"/>
    <line x1="450" y1="600" x2="650" y2="700" stroke="#5CFF5C" stroke-width="0.5" opacity="0.3"/>
    <line x1="650" y1="700" x2="850" y2="800" stroke="#5CFF5C" stroke-width="0.5" opacity="0.3"/>
    <line x1="850" y1="800" x2="250" y2="900" stroke="#5CFF5C" stroke-width="0.5" opacity="0.3"/>
    <line x1="100" y1="100" x2="150" y2="500" stroke="#5CFF5C" stroke-width="0.5" opacity="0.3"/>
    <line x1="300" y1="200" x2="450" y2="600" stroke="#5CFF5C" stroke-width="0.5" opacity="0.3"/>
    <line x1="500" y1="300" x2="650" y2="700" stroke="#5CFF5C" stroke-width="0.5" opacity="0.3"/>
    <line x1="700" y1="100" x2="850" y2="800" stroke="#5CFF5C" stroke-width="0.5" opacity="0.3"/>
  </g>
</svg>
